<?xml version="1.0" encoding="UTF-8"?>
<svg version="1.1" viewBox="0 0 2048 1536" width="1024" height="768" xmlns="http://www.w3.org/2000/svg">
<path transform="translate(0)" d="m0 0h2048v1536h-2048z" fill="#FEFFFE"/>
<path transform="translate(389,334)" d="m0 0 6 1 92 37 39 16 10 5v100l-2 1-31-8-3-2-1-57-8-4-18-6-1 42v149h51v53l-1 1h-51v248l25-9 4-1v-94l4-3 36-12h2v140l-6 4-56 22-49 20-35 14-6 2v-48l15-8 9-4h2v-536l-1-3-25-12-1-1z" fill="#092855"/>
<path transform="translate(869,458)" d="m0 0h19l66 4 21 2 12 3 9 5 8 7 6 10 3 12 1 97v28l-2 10-5 10-5 6-4 4 5 2 6 8 4 11 1 7 1 128 3 5 8 4 1 4v33l-1 5-7 1-20-2-10-3-9-6-6-9-2-6-1-7-1-18v-135h-33v144h17v42l-3 1-64 4h-12v-43l15-2v-321l-21-3z" fill="#092855"/>
<path transform="translate(550,398)" d="m0 0 8 1 65 18 5 2v43l-10-1-5-1 3 28 14 140 6 57h1l16-201 1-16-8-1-4-3-1-3v-36l1-3 13 2 57 12 2 1 1 3v36l-1 4-10-1-4-1-1 17-18 179-22 218-1 8-2 2-37 9h-5l-16-144-22-202-12-110-1-9-10-3-2-1-1-3z" fill="#092855"/>
<path transform="translate(952,951)" d="m0 0h23l28 1-1 2-51 9-44 11-38 12-32 13-16 8-15 8-1 4 10 3 40 14 9-1 17-9 26-11 31-10 34-8 27-4 16-1-2 2-26 10-21 9-28 15-17 11-9 7-6 9 3 3 75 28h11l18-10 21-12 28-14 27-11 41-14 28-8 33-7 33-5 28-3 38-2h26l17 1 7 1-2 2-17 2-43 8-28 7-29 9-20 7-24 10-21 10-19 10-24 14-17 12-19 14-11 9-12 11-10 9-8 8-9 11-13 15-6 2-18-8-70-32-30-14-26-12-66-31-91-42-17-8-2-4 6-5 24-12 27-12 30-11 30-9 32-8 40-7 34-4z" fill="#092855"/>
<path transform="translate(1289,442)" d="m0 0 2 1 5 36 27 210 20 154 2 7 11 2 3 4v29l-1 11-13-1-60-11-7-3-1-3v-38l2-1 12 2-4-45-1-13-18-2-11-1-4 44v11l11 3 1 37-1 5-16-1-58-7-3-2v-39l1-2h15l4-30 30-244 13-104 2-3z" fill="#092855"/>
<path transform="translate(1646,334)" d="m0 0h2v109l-14 7-19 7-1-3v-57l-18 8-4 2v510l2 4 16 7 1 2v28l-1 17-16-6-39-15-28-11-5-3v-44l7 1 14 5-1-476-12 3-10 3v57l-3 3-26 9h-3v-103l5-3 27-11 56-22z" fill="#092855"/>
<path transform="translate(1458,402)" d="m0 0 7 1 6 7 1 4v91l-4 3-30 10h-3l-1-60-9 1-17 4 1 93 5 13 11 21 12 20 15 24 14 22 14 24 6 12 1 3v217l-4 7-7 4-6 1-31-7-49-13-9-4-6-8-1-3v-101l9 1 28 6 2 2 1 67 15 4 10 3-1-158-4-13-7-14-12-19-13-21-16-26-14-24-10-19-3-12v-119l3-9 6-7 10-5 35-11 36-10z" fill="#092855"/>
<path transform="translate(730,440)" d="m0 0h9l106 14 8 2 1 4v34l-1 54h-11l-19-2-3-2v-49l-15-1-9-1v126h41l2 3v43l-1 2h-42v167l26-3v-74l3-2 26-3h9l1 22v89l-1 7-19 3-114 15h-3v-43l13-3 9-1-1-354-6-2-8-2-2-1v-41z" fill="#092855"/>
<path transform="translate(1118,460)" d="m0 0h7l1 19v13l-1 10-6 2h-13v318l16 1h11l1-79 1-1h17l19 1 2 2v123l-1 1h-11l-103-5-14-1-3-3v-39l1-1 14-1v-313l-19-1v-42l4-1z" fill="#092855"/>
<path transform="translate(939,504)" d="m0 0 28 1 1 1v118h-30v-119z" fill="#FEFFFE"/>
<path transform="translate(1640,955)" d="m0 0h11l8 4 6 7 2 5v11l-4 8-7 6-5 2h-11l-8-4-6-7-2-5v-11l4-8 7-6z" fill="#FEFFFE"/>
<path transform="translate(1271,616)" d="m0 0h1l3 24 8 80v13l-19-2-3-1v-11l8-85 1-15z" fill="#FEFFFE"/>
<path transform="translate(1640,955)" d="m0 0h11l8 4 6 7 2 5v11l-4 8-7 6-5 2h-11l-8-4-6-7-2-5v-11l4-8 7-6zm0 3-7 4-5 6-1 3v11l3 6 7 6 2 1h12l6-3 6-7 1-3v-11l-3-6-7-6-3-1z" fill="#092855"/>
<path transform="translate(1637,965)" d="m0 0h14l4 4v5l-2 2 1 4 1 8-3 1-2-6v-3h-9v8l-5-1v-21z" fill="#092855"/>
<path transform="translate(1641,968)" d="m0 0h8l2 2-1 5-1 1h-8z" fill="#FEFFFE"/>
</svg>
