<?xml version="1.0" encoding="UTF-8"?>
<svg version="1.1" viewBox="0 0 2048 2048" width="4500" height="4500" xmlns="http://www.w3.org/2000/svg">
<path transform="translate(0)" d="m0 0h2048v2048h-2048z" fill="#FEFEFE"/>
<path transform="translate(441,547)" d="m0 0 5 2 44 26 27 15 23 12 19 10 27 13 34 15 45 18 34 12 40 13 40 11 38 9 35 7 44 7 43 5 41 3 25 1h57l41-2 44-4 45-6 45-8 40-9 42-11 39-12 35-12 36-14 26-11 33-15 38-19 23-13 21-12 22-14 18-12 6 2 84 51 20 12 56 34 20 12 56 34 20 12 56 34 18 11 1 5-14 40-15 43-21 60-22 63-17 49-2 3h-139l3-10 22-59 13-34 23-61 14-37v-3l-17-11-58-38-61-40-32-21-21-14-5 1-22 14-22 13-25 14-29 15-33 16-35 15-34 13-47 16-39 11-37 9-39 8-44 7-43 5-39 3-20 1h-89l-50-3-49-5-49-7-50-9-49-11-43-11-44-13-43-14-41-15-40-16-30-13-28-13-25-12-22-12-4-2-5 1-15 10-75 49-75 49-8 5 1 7 25 81 18 59 17 55v2h-135l-12-36-20-63-22-69-21-66-6-19 1-5 26-16 28-17 26-16 51-31 26-16 51-31 26-16 28-17 26-16 28-17z" fill="#323232"/>
<path transform="translate(1380,1439)" d="m0 0h15l21 2 18 4 15 5 16 8 12 9 8 7 10 13 7 14 4 14 1 7v17l-3 16-6 16-8 12-11 12-12 9-17 9-21 7-22 4-12 1h-22l-19-2-21-5-15-6-13-7-13-10-8-8-9-13-6-13-4-16v-23l4-16 5-12 9-13 8-9 14-11 14-8 18-7 22-5z" fill="#323232"/>
<path transform="translate(1583,1444)" d="m0 0h60l3 8 21 80 10 42 1 2 8-32 16-55 13-44 1-1h60l3 8 19 70 7 28 5 24 2-6 16-64 15-52 3-8h58l-7 20-18 49-20 54-17 46-3 7h-62l-6-19-18-65-7-30-3-13-10 40-18 56-9 29-1 2h-63l-15-43-28-83-14-41z" fill="#323232"/>
<path transform="translate(638,1444)" d="m0 0h76l11 25 15 36 11 30 9 29 1 1 10-29 13-32 16-35 11-25h75l1 1 13 170v5h-56l-5-85-2-52-12 31-16 36-18 40-12 27h-45l-4-8-12-31-15-38-14-41-5-16-4 71-5 66h-53l1-17 14-154z" fill="#323232"/>
<path transform="translate(1053,1442)" d="m0 0h32l28 2 20 4 18 7 10 7 8 9 4 11v10l-4 10-7 8-14 9-13 5 4 2 14 5 11 6 10 9 6 10 2 6v12l-3 10-7 10-9 8-15 8-20 6-25 4-12 1-37 1-39-1-14-1-5-1v-173l32-3z" fill="#323232"/>
<path transform="translate(173,1444)" d="m0 0h57l1 76 22-24 24-24 7-8 20-20h70l-5 6-8 7-12 11-8 7-12 11-8 7-12 11-16 14 2 4 10 11 9 11 10 11 9 11 11 12 9 11 10 11 9 11 6 7v2h-65l-9-10-8-10-13-16-9-11-13-16-9-11h-3l-10 9-8 7-1 57-1 1h-56z" fill="#323232"/>
<path transform="translate(1376,1471)" d="m0 0h20l16 4 13 7 11 11 8 16 3 16-1 17-4 14-6 10-9 10-10 6-13 5-5 1h-25l-15-4-11-6-11-10-8-14-4-16v-16l4-16 5-10 9-10 7-6 13-6z" fill="#FEFEFE"/>
<path transform="translate(472,1444)" d="m0 0h57v176h-56l-1-1z" fill="#323232"/>
<path transform="translate(1773,1086)" d="m0 0h15l11 4 10 6 8 9 5 11 1 4v18l-4 11-5 8-8 8-10 5-6 2-13 1-10-2-14-7-7-7-6-10-3-10v-15l3-10 6-10 4-5 11-7z" fill="#FEFEFE"/>
<path transform="translate(1051,1543)" d="m0 0h27l18 2 13 4 8 6 4 5 1 4v7l-4 8-7 6-9 4-16 3h-33l-3-1v-47z" fill="#FEFEFE"/>
<path transform="translate(1072,1471)" d="m0 0 18 1 14 4 8 6 4 8-1 9-4 6-5 4-12 5-12 2h-32v-43l3-1z" fill="#FEFEFE"/>
<path transform="translate(1773,1086)" d="m0 0h15l11 4 10 6 8 9 5 11 1 4v18l-4 11-5 8-8 8-10 5-6 2-13 1-10-2-14-7-7-7-6-10-3-10v-15l3-10 6-10 4-5 11-7zm3 7-13 4-8 6-7 9-4 12v11l4 11 6 9 10 7 9 3h14l11-4 8-6 6-8 4-11v-13l-4-11-4-6-9-8-10-4-4-1z" fill="#323232"/>
<path transform="translate(1762,1106)" d="m0 0h16l13 2 6 7v9l-6 7-5 2 8 9 6 11h-9l-9-14-1-3-12-3v20h-8v-46z" fill="#323232"/>
<path transform="translate(1769,1113)" d="m0 0h14l5 3 1 1-1 7-5 3h-14z" fill="#FEFEFE"/>
</svg>
